name F:\PHD\Matlab_Output_Files\Ahelaos\HopStudy\HopDistance\Right\HDR_1\HDR_1_GRF.mot
datacolumns 10
datarows 23
range 1.79000000 1.81200000
endheader

                time	     ground_force_vx	     ground_force_vy	     ground_force_vz	     ground_force_px	     ground_force_py	     ground_force_pz	     ground_torque_x	     ground_torque_y	     ground_torque_z	
          1.79000000	       -253.25350361	       1204.53017652	         25.83309775	         -0.27001610	          0.00000000	          0.22892523	          0.00000000	          2.40460651	          0.00000000	
          1.79100000	       -259.17960387	       1180.08507704	         17.36954406	         -0.26758943	          0.00000000	          0.22949235	          0.00000000	          1.97008244	          0.00000000	
          1.79200000	       -267.66312923	       1160.22064979	         10.18892655	         -0.26511840	          0.00000000	          0.23000932	          0.00000000	          1.34020026	          0.00000000	
          1.79300000	       -278.35908676	       1144.52336366	          4.27905176	         -0.26271251	          0.00000000	          0.23044619	          0.00000000	          0.63253738	          0.00000000	
          1.79400000	       -289.59200653	       1132.26126561	         -0.54384558	         -0.26052113	          0.00000000	          0.23080701	          0.00000000	         -0.02305827	          0.00000000	
          1.79500000	       -300.15878832	       1123.13569891	         -4.47732934	         -0.25860381	          0.00000000	          0.23112013	          0.00000000	         -0.62573078	          0.00000000	
          1.79600000	       -310.49023906	       1117.58587887	         -7.88049519	         -0.25690109	          0.00000000	          0.23141371	          0.00000000	         -1.14848233	          0.00000000	
          1.79700000	       -321.12309553	       1116.25523328	        -11.35057946	         -0.25535848	          0.00000000	          0.23169967	          0.00000000	         -1.50546783	          0.00000000	
          1.79800000	       -331.28286002	       1118.80391548	        -15.01625654	         -0.25399023	          0.00000000	          0.23195781	          0.00000000	         -1.71349006	          0.00000000	
          1.79900000	       -340.02906326	       1123.62841626	        -18.15793111	         -0.25281047	          0.00000000	          0.23214575	          0.00000000	         -1.84944565	          0.00000000	
          1.80000000	       -347.53969700	       1128.99013455	        -20.27776743	         -0.25176860	          0.00000000	          0.23223973	          0.00000000	         -1.93047915	          0.00000000	
          1.80100000	       -354.18346402	       1133.97143518	        -22.01159537	         -0.25078109	          0.00000000	          0.23225696	          0.00000000	         -1.98962503	          0.00000000	
          1.80200000	       -359.48311222	       1138.41881543	        -24.16245543	         -0.24980567	          0.00000000	          0.23224998	          0.00000000	         -2.08843423	          0.00000000	
          1.80300000	       -362.90482743	       1142.19498389	        -26.49570860	         -0.24884523	          0.00000000	          0.23227468	          0.00000000	         -2.20479569	          0.00000000	
          1.80400000	       -364.69076253	       1144.53411561	        -28.36315840	         -0.24789267	          0.00000000	          0.23233893	          0.00000000	         -2.31005162	          0.00000000	
          1.80500000	       -365.21605699	       1144.58035168	        -29.73263962	         -0.24693146	          0.00000000	          0.23240560	          0.00000000	         -2.46975557	          0.00000000	
          1.80600000	       -364.28119284	       1142.57708409	        -30.75055689	         -0.24597677	          0.00000000	          0.23245220	          0.00000000	         -2.69298581	          0.00000000	
          1.80700000	       -361.68261839	       1140.06244406	        -31.10032110	         -0.24506396	          0.00000000	          0.23248234	          0.00000000	         -2.87701447	          0.00000000	
          1.80800000	       -358.06311292	       1138.96238553	        -30.56619283	         -0.24421829	          0.00000000	          0.23249251	          0.00000000	         -2.99072793	          0.00000000	
          1.80900000	       -354.51416476	       1140.63938063	        -29.57295048	         -0.24347442	          0.00000000	          0.23246854	          0.00000000	         -3.07240083	          0.00000000	
          1.81000000	       -351.44784575	       1145.54548514	        -28.59677710	         -0.24289579	          0.00000000	          0.23239962	          0.00000000	         -3.08373791	          0.00000000	
          1.81100000	       -348.60646851	       1153.51409177	        -27.60360950	         -0.24253471	          0.00000000	          0.23228076	          0.00000000	         -2.99356865	          0.00000000	
          1.81200000	       -346.16730165	       1164.22311742	        -26.47509668	         -0.24238390	          0.00000000	          0.23211043	          0.00000000	         -2.86523130	          0.00000000	
